<svg width="328" height="355" viewBox="0 0 328 355" fill="none" xmlns="http://www.w3.org/2000/svg">
<g clip-path="url(#clip0_2012_111)">
<path d="M122 -7L157.302 470H172.14L210 -7H122Z" fill="white" fill-opacity="0.09"/>
<path d="M-1.27686 -2.86218L136.439 471.456L150.947 468.348L84.7708 -21.2961L-1.27686 -2.86218Z" fill="white" fill-opacity="0.09"/>
<path d="M327.655 4.55664L191.529 471.456L177.021 468.348L241.608 -13.8773L327.655 4.55664Z" fill="white" fill-opacity="0.09"/>
<path d="M451.999 45.1143L213.809 474.915L200.348 468.673L372.163 8.09804L451.999 45.1143Z" fill="white" fill-opacity="0.09"/>
<path d="M548.281 140.59L229.799 497.444L218.031 488.409L478.48 87.0001L548.281 140.59Z" fill="white" fill-opacity="0.09"/>
<path d="M-220 140.59L98.4811 497.444L110.25 488.409L-150.199 87.0001L-220 140.59Z" fill="white" fill-opacity="0.09"/>
<path d="M-131.62 25.4838L115.672 474.915L129.133 468.673L-51.784 -11.5325L-131.62 25.4838Z" fill="white" fill-opacity="0.09"/>
<path d="M42.8335 190.381C42.698 190.615 42.5035 190.809 42.2695 190.944C42.0354 191.078 41.7701 191.149 41.5 191.149C41.2299 191.149 40.9646 191.078 40.7305 190.944C40.4965 190.809 40.302 190.615 40.1665 190.381L35.9824 183.169C35.8374 182.92 35.6384 182.706 35.3998 182.544C35.1613 182.382 34.8894 182.275 34.6041 182.232L26.7617 181.048C25.4451 180.848 24.9826 179.186 26.0093 178.335L31.8507 173.497C32.3903 173.048 32.6447 172.341 32.5136 171.651L30.9858 163.627C30.9316 163.342 30.9588 163.048 31.0645 162.777C31.1701 162.507 31.3498 162.272 31.583 162.1C31.8161 161.927 32.0933 161.824 32.3825 161.802C32.6718 161.779 32.9614 161.839 33.2182 161.974L40.6027 165.863C40.8794 166.008 41.1874 166.084 41.5 166.084C41.8126 166.084 42.1206 166.008 42.3972 165.863L49.7818 161.974C50.0386 161.839 50.3282 161.779 50.6175 161.802C50.9067 161.824 51.1839 161.927 51.417 162.1C51.6502 162.272 51.8299 162.507 51.9355 162.777C52.0412 163.048 52.0684 163.342 52.0142 163.627L50.4864 171.651C50.4216 171.99 50.449 172.34 50.5656 172.665C50.6822 172.989 50.8838 173.277 51.1493 173.497L56.9922 178.336C58.0174 179.184 57.5549 180.849 56.2368 181.048L48.3974 182.232C48.1119 182.275 47.8397 182.381 47.6008 182.544C47.362 182.706 47.1627 182.92 47.0176 183.169L42.8335 190.381Z" fill="#BD5B31"/>
<path d="M21.3381 94.6335C21.1513 94.9555 20.8832 95.2228 20.5606 95.4087C20.238 95.5945 19.8723 95.6923 19.5 95.6923C19.1277 95.6923 18.762 95.5945 18.4394 95.4087C18.1168 95.2228 17.8487 94.9555 17.6619 94.6335L11.8946 84.6928C11.6949 84.349 11.4205 84.0544 11.0917 83.8308C10.7629 83.6071 10.388 83.4602 9.99487 83.4008L-0.815 81.7688C-2.62975 81.4925 -3.26725 79.2018 -1.852 78.0288L6.19962 71.3605C6.94337 70.7422 7.294 69.7668 7.11337 68.8169L5.0075 57.7563C4.93271 57.3635 4.97028 56.9575 5.11588 56.5851C5.26148 56.2127 5.50921 55.8889 5.8306 55.6509C6.15198 55.413 6.53398 55.2706 6.93268 55.24C7.33139 55.2095 7.73062 55.2921 8.0845 55.4783L18.2632 60.8375C18.6446 61.0382 19.0691 61.143 19.5 61.143C19.9309 61.143 20.3554 61.0382 20.7367 60.8375L30.9155 55.4783C31.2694 55.2921 31.6686 55.2095 32.0673 55.24C32.466 55.2706 32.848 55.413 33.1694 55.6509C33.4908 55.8889 33.7385 56.2127 33.8841 56.5851C34.0297 56.9575 34.0673 57.3635 33.9925 57.7563L31.8866 68.8169C31.7974 69.2839 31.8351 69.7662 31.9958 70.2136C32.1565 70.661 32.4344 71.0571 32.8004 71.3605L40.8541 78.0309C42.2672 79.1997 41.6297 81.4947 39.8129 81.7688L29.0072 83.4008C28.6137 83.4599 28.2385 83.6067 27.9093 83.8303C27.5801 84.054 27.3054 84.3487 27.1054 84.6928L21.3381 94.6335Z" fill="#BD5B31"/>
<g clip-path="url(#clip1_2012_111)">
<path d="M347.448 200.286C347.195 200.034 346.879 199.852 346.534 199.76C346.188 199.668 345.824 199.668 345.479 199.761C345.133 199.853 344.818 200.035 344.565 200.288C344.312 200.54 344.13 200.855 344.036 201.2L341.156 211.86C341.056 212.229 340.875 212.57 340.625 212.86C340.376 213.149 340.064 213.378 339.714 213.531L330.088 217.734C328.472 218.442 328.45 220.726 330.056 221.463L339.186 225.649C340.03 226.038 340.598 226.856 340.667 227.782L341.463 238.571C341.491 238.954 341.627 239.321 341.854 239.631C342.082 239.94 342.393 240.179 342.75 240.32C343.107 240.461 343.497 240.498 343.875 240.427C344.253 240.357 344.603 240.181 344.885 239.92L352.998 232.415C353.302 232.134 353.67 231.931 354.07 231.824C354.47 231.717 354.89 231.709 355.294 231.8L366.073 234.242C366.448 234.327 366.839 234.305 367.201 234.177C367.564 234.05 367.883 233.822 368.122 233.522C368.361 233.221 368.51 232.859 368.553 232.477C368.595 232.095 368.529 231.709 368.362 231.363L363.657 221.622C363.458 221.211 363.373 220.754 363.411 220.299C363.449 219.844 363.609 219.407 363.873 219.034L369.688 210.841C370.709 209.405 369.547 207.434 367.792 207.631L357.359 208.804C356.979 208.847 356.594 208.804 356.233 208.678C355.872 208.552 355.543 208.347 355.272 208.077L347.448 200.286Z" fill="#BD5B31"/>
</g>
<path d="M299.225 161.244C299.101 161.03 298.922 160.851 298.707 160.728C298.492 160.604 298.248 160.538 298 160.538C297.752 160.538 297.508 160.604 297.293 160.728C297.078 160.851 296.899 161.03 296.775 161.244L292.93 167.871C292.797 168.101 292.614 168.297 292.394 168.446C292.175 168.595 291.925 168.693 291.663 168.733L284.457 169.821C283.247 170.005 282.822 171.532 283.765 172.314L289.133 176.76C289.629 177.172 289.863 177.822 289.742 178.455L288.338 185.829C288.288 186.091 288.314 186.362 288.411 186.61C288.508 186.858 288.673 187.074 288.887 187.233C289.101 187.391 289.356 187.486 289.622 187.507C289.888 187.527 290.154 187.472 290.39 187.348L297.176 183.775C297.43 183.641 297.713 183.571 298 183.571C298.287 183.571 298.57 183.641 298.825 183.775L305.61 187.348C305.846 187.472 306.112 187.527 306.378 187.507C306.644 187.486 306.899 187.391 307.113 187.233C307.327 187.074 307.492 186.858 307.589 186.61C307.686 186.362 307.712 186.091 307.662 185.829L306.258 178.455C306.198 178.144 306.223 177.822 306.331 177.524C306.438 177.226 306.623 176.962 306.867 176.76L312.236 172.313C313.178 171.534 312.753 170.004 311.542 169.821L304.338 168.733C304.076 168.693 303.826 168.595 303.606 168.446C303.387 168.297 303.204 168.101 303.07 167.871L299.225 161.244Z" fill="#BD5B31"/>
</g>
<defs>
<clipPath id="clip0_2012_111">
<rect width="328" height="355" fill="white"/>
</clipPath>
<clipPath id="clip1_2012_111">
<rect width="49" height="49" fill="white" transform="translate(320.494 201.176) rotate(-15)"/>
</clipPath>
</defs>
</svg>
