<svg width="454" height="394" viewBox="0 0 454 394" fill="none" xmlns="http://www.w3.org/2000/svg">
<g clip-path="url(#clip0_2003_2)">
<path d="M193 -7L228.302 470H243.14L281 -7H193Z" fill="white" fill-opacity="0.09"/>
<path d="M69.7231 -2.86218L207.439 471.456L221.947 468.348L155.771 -21.2961L69.7231 -2.86218Z" fill="white" fill-opacity="0.09"/>
<path d="M398.655 4.55664L262.529 471.456L248.021 468.348L312.608 -13.8773L398.655 4.55664Z" fill="white" fill-opacity="0.09"/>
<path d="M522.999 45.1143L284.809 474.915L271.348 468.673L443.163 8.09804L522.999 45.1143Z" fill="white" fill-opacity="0.09"/>
<path d="M619.281 140.59L300.799 497.444L289.031 488.408L549.48 87L619.281 140.59Z" fill="white" fill-opacity="0.09"/>
<path d="M-149 140.59L169.481 497.444L181.25 488.408L-79.1991 87L-149 140.59Z" fill="white" fill-opacity="0.09"/>
<path d="M-60.6201 25.4838L186.672 474.915L200.133 468.673L19.216 -11.5325L-60.6201 25.4838Z" fill="white" fill-opacity="0.09"/>
<path d="M89.8336 190.381C89.698 190.615 89.5035 190.809 89.2695 190.944C89.0354 191.078 88.7701 191.149 88.5 191.149C88.2299 191.149 87.9646 191.078 87.7305 190.944C87.4965 190.809 87.302 190.615 87.1665 190.381L82.9824 183.169C82.8375 182.92 82.6384 182.706 82.3998 182.544C82.1613 182.382 81.8894 182.275 81.6041 182.232L73.7617 181.048C72.4451 180.848 71.9826 179.186 73.0093 178.335L78.8507 173.497C79.3903 173.048 79.6447 172.341 79.5136 171.651L77.9858 163.627C77.9316 163.342 77.9588 163.048 78.0645 162.777C78.1701 162.507 78.3498 162.272 78.583 162.1C78.8162 161.927 79.0933 161.824 79.3825 161.802C79.6718 161.779 79.9614 161.839 80.2182 161.974L87.6028 165.863C87.8794 166.008 88.1874 166.084 88.5 166.084C88.8126 166.084 89.1206 166.008 89.3973 165.863L96.7818 161.974C97.0386 161.839 97.3282 161.779 97.6175 161.802C97.9067 161.824 98.1839 161.927 98.417 162.1C98.6502 162.272 98.8299 162.507 98.9356 162.777C99.0412 163.048 99.0684 163.342 99.0142 163.627L97.4864 171.651C97.4216 171.99 97.449 172.34 97.5656 172.665C97.6822 172.989 97.8838 173.277 98.1493 173.497L103.992 178.336C105.017 179.184 104.555 180.849 103.237 181.048L95.3974 182.232C95.1119 182.275 94.8397 182.381 94.6009 182.544C94.362 182.706 94.1627 182.92 94.0176 183.169L89.8336 190.381Z" fill="#BD5B31"/>
<path d="M99.3381 94.6335C99.1513 94.9555 98.8832 95.2228 98.5606 95.4087C98.238 95.5945 97.8723 95.6923 97.5 95.6923C97.1277 95.6923 96.762 95.5945 96.4394 95.4087C96.1168 95.2228 95.8487 94.9555 95.6619 94.6335L89.8946 84.6928C89.6949 84.349 89.4205 84.0544 89.0917 83.8308C88.7628 83.6071 88.388 83.4602 87.9949 83.4008L77.185 81.7688C75.3702 81.4925 74.7327 79.2018 76.148 78.0288L84.1996 71.3605C84.9434 70.7422 85.294 69.7668 85.1134 68.8169L83.0075 57.7563C82.9327 57.3635 82.9703 56.9575 83.1159 56.5851C83.2615 56.2127 83.5092 55.8889 83.8306 55.6509C84.152 55.413 84.534 55.2706 84.9327 55.24C85.3314 55.2095 85.7306 55.2921 86.0845 55.4783L96.2632 60.8375C96.6446 61.0382 97.0691 61.143 97.5 61.143C97.9309 61.143 98.3554 61.0382 98.7367 60.8375L108.915 55.4783C109.269 55.2921 109.669 55.2095 110.067 55.24C110.466 55.2706 110.848 55.413 111.169 55.6509C111.491 55.8889 111.739 56.2127 111.884 56.5851C112.03 56.9575 112.067 57.3635 111.992 57.7563L109.887 68.8169C109.797 69.2839 109.835 69.7662 109.996 70.2136C110.157 70.661 110.434 71.0571 110.8 71.3605L118.854 78.0309C120.267 79.1997 119.63 81.4947 117.813 81.7688L107.007 83.4008C106.614 83.4599 106.238 83.6067 105.909 83.8303C105.58 84.054 105.305 84.3487 105.105 84.6928L99.3381 94.6335Z" fill="#BD5B31"/>
<g clip-path="url(#clip1_2003_2)">
<path d="M347.448 200.286C347.195 200.034 346.879 199.852 346.534 199.76C346.188 199.668 345.824 199.668 345.479 199.761C345.133 199.853 344.818 200.035 344.565 200.288C344.312 200.54 344.13 200.855 344.036 201.2L341.156 211.86C341.056 212.229 340.875 212.57 340.625 212.86C340.376 213.149 340.064 213.378 339.714 213.531L330.088 217.734C328.472 218.442 328.45 220.726 330.056 221.463L339.186 225.649C340.03 226.038 340.598 226.856 340.667 227.782L341.463 238.571C341.491 238.954 341.627 239.321 341.854 239.631C342.082 239.94 342.393 240.179 342.75 240.32C343.107 240.461 343.497 240.498 343.875 240.427C344.253 240.357 344.603 240.181 344.885 239.92L352.998 232.415C353.302 232.134 353.67 231.931 354.07 231.824C354.47 231.717 354.89 231.709 355.294 231.8L366.073 234.242C366.448 234.327 366.839 234.305 367.201 234.177C367.564 234.05 367.883 233.822 368.122 233.522C368.361 233.221 368.51 232.859 368.553 232.477C368.595 232.095 368.529 231.709 368.362 231.363L363.657 221.622C363.458 221.211 363.373 220.754 363.411 220.299C363.449 219.844 363.609 219.407 363.873 219.034L369.688 210.841C370.709 209.405 369.547 207.434 367.792 207.631L357.359 208.804C356.979 208.847 356.594 208.804 356.233 208.678C355.872 208.552 355.543 208.347 355.272 208.077L347.448 200.286Z" fill="#BD5B31"/>
</g>
<path d="M299.225 161.244C299.101 161.03 298.922 160.851 298.707 160.728C298.492 160.604 298.248 160.539 298 160.539C297.752 160.539 297.508 160.604 297.293 160.728C297.078 160.851 296.899 161.03 296.775 161.244L292.93 167.872C292.797 168.101 292.614 168.297 292.394 168.446C292.175 168.595 291.925 168.693 291.663 168.733L284.457 169.821C283.247 170.005 282.822 171.532 283.765 172.314L289.133 176.76C289.629 177.172 289.863 177.822 289.742 178.455L288.338 185.829C288.288 186.091 288.314 186.362 288.411 186.61C288.508 186.858 288.673 187.074 288.887 187.233C289.101 187.391 289.356 187.486 289.622 187.507C289.888 187.527 290.154 187.472 290.39 187.348L297.176 183.775C297.43 183.641 297.713 183.571 298 183.571C298.287 183.571 298.57 183.641 298.825 183.775L305.61 187.348C305.846 187.472 306.112 187.527 306.378 187.507C306.644 187.486 306.899 187.391 307.113 187.233C307.327 187.074 307.492 186.858 307.589 186.61C307.686 186.362 307.712 186.091 307.662 185.829L306.258 178.455C306.198 178.144 306.223 177.823 306.331 177.524C306.438 177.226 306.623 176.962 306.867 176.76L312.236 172.313C313.178 171.534 312.753 170.004 311.542 169.821L304.338 168.733C304.076 168.693 303.826 168.596 303.606 168.446C303.387 168.297 303.204 168.101 303.07 167.872L299.225 161.244Z" fill="#BD5B31"/>
<path d="M364.937 103.754C364.842 103.918 364.705 104.055 364.541 104.149C364.376 104.244 364.19 104.294 364 104.294C363.81 104.294 363.624 104.244 363.459 104.149C363.295 104.055 363.158 103.918 363.063 103.754L360.123 98.6865C360.021 98.5112 359.881 98.361 359.713 98.247C359.546 98.133 359.355 98.0581 359.154 98.0278L353.643 97.1958C352.718 97.055 352.393 95.8872 353.115 95.2892L357.219 91.8897C357.599 91.5744 357.777 91.0772 357.685 90.5929L356.612 84.9542C356.574 84.7539 356.593 84.5469 356.667 84.3571C356.741 84.1672 356.867 84.0021 357.031 83.8808C357.195 83.7595 357.39 83.6869 357.593 83.6714C357.796 83.6558 358 83.6979 358.18 83.7928L363.369 86.525C363.564 86.6273 363.78 86.6807 364 86.6807C364.22 86.6807 364.436 86.6273 364.63 86.525L369.82 83.7928C370 83.6979 370.204 83.6558 370.407 83.6714C370.61 83.6869 370.805 83.7595 370.969 83.8808C371.133 84.0021 371.259 84.1672 371.333 84.3571C371.407 84.5469 371.426 84.7539 371.388 84.9542L370.315 90.5929C370.269 90.831 370.288 91.0769 370.37 91.305C370.452 91.533 370.594 91.735 370.781 91.8897L374.886 95.2902C375.607 95.8861 375.282 97.0561 374.356 97.1958L368.847 98.0278C368.646 98.058 368.455 98.1328 368.287 98.2468C368.119 98.3608 367.979 98.5111 367.877 98.6865L364.937 103.754Z" fill="#BD5B31"/>
</g>
<defs>
<clipPath id="clip0_2003_2">
<rect width="454" height="394" fill="white"/>
</clipPath>
<clipPath id="clip1_2003_2">
<rect width="49" height="49" fill="white" transform="translate(320.494 201.176) rotate(-15)"/>
</clipPath>
</defs>
</svg>
