<svg width="91" height="96" viewBox="0 0 91 96" fill="none" xmlns="http://www.w3.org/2000/svg">
<path d="M43.2571 1.54641C44.6485 0.143471 46.9167 0.143469 48.3082 1.54641L56.4324 9.73781C57.2415 10.5536 58.3948 10.9283 59.5289 10.7439L70.9163 8.89226C72.8667 8.57513 74.7017 9.90834 75.0028 11.8612L76.7607 23.2635C76.9357 24.3991 77.6485 25.3801 78.6744 25.8975L88.9754 31.0929C90.7397 31.9827 91.4406 34.1399 90.5363 35.8968L85.2563 46.1547C84.7305 47.1763 84.7305 48.3889 85.2563 49.4105L90.5363 59.6684C91.4406 61.4253 90.7397 63.5825 88.9754 64.4723L78.6744 69.6677C77.6485 70.1851 76.9357 71.1661 76.7607 72.3017L75.0028 83.704C74.7017 85.6569 72.8667 86.9901 70.9164 86.673L59.5289 84.8213C58.3948 84.6369 57.2415 85.0116 56.4324 85.8274L48.3082 94.0188C46.9167 95.4217 44.6485 95.4217 43.2571 94.0188L35.1328 85.8274C34.3237 85.0116 33.1704 84.6369 32.0363 84.8213L20.6489 86.673C18.6985 86.9901 16.8635 85.6569 16.5624 83.704L14.8045 72.3017C14.6295 71.1661 13.9167 70.1851 12.8908 69.6677L2.58982 64.4723C0.825555 63.5825 0.12464 61.4253 1.02894 59.6684L6.30887 49.4105C6.8347 48.3889 6.8347 47.1763 6.30887 46.1547L1.02894 35.8968C0.12464 34.1399 0.825553 31.9827 2.58981 31.0929L12.8908 25.8975C13.9167 25.3801 14.6295 24.3991 14.8045 23.2635L16.5624 11.8612C16.8635 9.90834 18.6985 8.57513 20.6489 8.89226L32.0363 10.7439C33.1704 10.9283 34.3237 10.5536 35.1328 9.73781L43.2571 1.54641Z" fill="#D9D9D9"/>
<path d="M43.2571 1.54641C44.6485 0.143471 46.9167 0.143469 48.3082 1.54641L56.4324 9.73781C57.2415 10.5536 58.3948 10.9283 59.5289 10.7439L70.9163 8.89226C72.8667 8.57513 74.7017 9.90834 75.0028 11.8612L76.7607 23.2635C76.9357 24.3991 77.6485 25.3801 78.6744 25.8975L88.9754 31.0929C90.7397 31.9827 91.4406 34.1399 90.5363 35.8968L85.2563 46.1547C84.7305 47.1763 84.7305 48.3889 85.2563 49.4105L90.5363 59.6684C91.4406 61.4253 90.7397 63.5825 88.9754 64.4723L78.6744 69.6677C77.6485 70.1851 76.9357 71.1661 76.7607 72.3017L75.0028 83.704C74.7017 85.6569 72.8667 86.9901 70.9164 86.673L59.5289 84.8213C58.3948 84.6369 57.2415 85.0116 56.4324 85.8274L48.3082 94.0188C46.9167 95.4217 44.6485 95.4217 43.2571 94.0188L35.1328 85.8274C34.3237 85.0116 33.1704 84.6369 32.0363 84.8213L20.6489 86.673C18.6985 86.9901 16.8635 85.6569 16.5624 83.704L14.8045 72.3017C14.6295 71.1661 13.9167 70.1851 12.8908 69.6677L2.58982 64.4723C0.825555 63.5825 0.12464 61.4253 1.02894 59.6684L6.30887 49.4105C6.8347 48.3889 6.8347 47.1763 6.30887 46.1547L1.02894 35.8968C0.12464 34.1399 0.825553 31.9827 2.58981 31.0929L12.8908 25.8975C13.9167 25.3801 14.6295 24.3991 14.8045 23.2635L16.5624 11.8612C16.8635 9.90834 18.6985 8.57513 20.6489 8.89226L32.0363 10.7439C33.1704 10.9283 34.3237 10.5536 35.1328 9.73781L43.2571 1.54641Z" fill="url(#paint0_linear_2015_156)"/>
<path d="M43.2571 1.54641C44.6485 0.143471 46.9167 0.143469 48.3082 1.54641L56.4324 9.73781C57.2415 10.5536 58.3948 10.9283 59.5289 10.7439L70.9163 8.89226C72.8667 8.57513 74.7017 9.90834 75.0028 11.8612L76.7607 23.2635C76.9357 24.3991 77.6485 25.3801 78.6744 25.8975L88.9754 31.0929C90.7397 31.9827 91.4406 34.1399 90.5363 35.8968L85.2563 46.1547C84.7305 47.1763 84.7305 48.3889 85.2563 49.4105L90.5363 59.6684C91.4406 61.4253 90.7397 63.5825 88.9754 64.4723L78.6744 69.6677C77.6485 70.1851 76.9357 71.1661 76.7607 72.3017L75.0028 83.704C74.7017 85.6569 72.8667 86.9901 70.9164 86.673L59.5289 84.8213C58.3948 84.6369 57.2415 85.0116 56.4324 85.8274L48.3082 94.0188C46.9167 95.4217 44.6485 95.4217 43.2571 94.0188L35.1328 85.8274C34.3237 85.0116 33.1704 84.6369 32.0363 84.8213L20.6489 86.673C18.6985 86.9901 16.8635 85.6569 16.5624 83.704L14.8045 72.3017C14.6295 71.1661 13.9167 70.1851 12.8908 69.6677L2.58982 64.4723C0.825555 63.5825 0.12464 61.4253 1.02894 59.6684L6.30887 49.4105C6.8347 48.3889 6.8347 47.1763 6.30887 46.1547L1.02894 35.8968C0.12464 34.1399 0.825553 31.9827 2.58981 31.0929L12.8908 25.8975C13.9167 25.3801 14.6295 24.3991 14.8045 23.2635L16.5624 11.8612C16.8635 9.90834 18.6985 8.57513 20.6489 8.89226L32.0363 10.7439C33.1704 10.9283 34.3237 10.5536 35.1328 9.73781L43.2571 1.54641Z" fill="url(#paint1_linear_2015_156)" style="mix-blend-mode:overlay"/>
<defs>
<linearGradient id="paint0_linear_2015_156" x1="2.40936" y1="60.0211" x2="127.145" y2="28.5215" gradientUnits="userSpaceOnUse">
<stop stop-color="#576265"/>
<stop offset="0.172016" stop-color="#9EA1A1"/>
<stop offset="0.45741" stop-color="#848B8A"/>
<stop offset="0.553567" stop-color="#576265"/>
<stop offset="0.823421" stop-color="#576265"/>
<stop offset="0.925155" stop-color="#757A7B"/>
<stop offset="1" stop-color="#576265"/>
</linearGradient>
<linearGradient id="paint1_linear_2015_156" x1="35.9474" y1="47.7826" x2="16.4874" y2="-3.00264" gradientUnits="userSpaceOnUse">
<stop stop-color="white" stop-opacity="0"/>
<stop offset="1" stop-color="white"/>
</linearGradient>
</defs>
</svg>
